<?xml version="1.0" encoding="utf-8"?>
<!-- Generator: Adobe Illustrator 19.0.0, SVG Export Plug-In . SVG Version: 6.00 Build 0)  -->
<svg version="1.1" id="Layer_1" xmlns:svgjs="http://svgjs.com/svgjs"
	 xmlns="http://www.w3.org/2000/svg" xmlns:xlink="http://www.w3.org/1999/xlink" x="0px" y="0px" viewBox="206 -206 512 512"
	 style="enable-background:new 206 -206 512 512;" xml:space="preserve">
<style type="text/css">
	.st0{fill:#08174A;}
</style>
<g>
	<g>
		<g>
			<path class="st0" d="M462-114.2c-82.6,0-149.8,67.2-149.8,149.8c0,28.2,7.8,55.5,22.7,79.3c-5.9,20.7-16.6,59.9-16.7,60.4
				c-0.6,2,0,4.2,1.6,5.7c1.5,1.5,3.7,2,5.7,1.4l59.4-18.3c23.3,14,49.9,21.4,77.2,21.4c82.6,0,149.8-67.2,149.8-149.8
				S544.6-114.2,462-114.2z M462,173.9c-26,0-51.4-7.3-73.3-21c-0.9-0.6-2-0.9-3.1-0.9c-0.6,0-1.1,0.1-1.7,0.3l-51.8,16
				c3.8-13.9,10.7-38.8,14.6-52.6c0.5-1.6,0.2-3.3-0.7-4.7c-14.6-22.4-22.2-48.4-22.2-75.2c0-76.2,62-138.3,138.3-138.3
				s138.3,62,138.3,138.3S538.2,173.9,462,173.9z"/>
			<path class="st0" d="M559.9,70.9c-10.6-5.9-19.7-11.8-26.3-16.1c-5-3.3-8.7-5.7-11.4-7c-7.5-3.7-13.1-1.1-15.3,1.1
				c-0.3,0.3-0.5,0.6-0.7,0.9c-7.8,11.6-17.9,22.8-20.9,23.4c-3.4-0.5-19.5-9.7-35.4-22.9c-16.3-13.6-26.5-26.6-28-35.4
				C432.3,4,436.1-2.8,436.1-10.5c0-7.9-18.5-41.1-21.9-44.4c-3.4-3.4-10.9-3.9-22.5-1.6c-1.1,0.2-2.1,0.8-2.9,1.6
				c-1.4,1.4-34.2,34.8-18.6,75.3c17.1,44.4,61,96.1,116.9,104.5c6.4,1,12.3,1.4,17.9,1.4c32.9,0,52.3-16.6,57.8-49.4
				C563.1,74.5,562,72.1,559.9,70.9z M488.8,113.5C429.6,104.6,392.4,46,381,16.3c-11.4-29.5,9.6-55.8,14.8-61.7
				c4.3-0.7,8.8-1,10.7-0.7c3.9,5.5,17.5,31.1,18.1,35.7c0,3-1,7.2-12.7,19c-1.1,1.1-1.7,2.5-1.7,4.1c0,30.2,63.6,72,74.9,72
				c9.8,0,22.6-16.5,29.9-27.2c0.4,0,1.1,0.2,2.1,0.7c2.1,1,5.7,3.4,10.2,6.4c6,3.9,14,9.1,23.4,14.5
				C546.4,99.5,534.4,120.3,488.8,113.5z"/>
		</g>
	</g>
</g>
<g>
	<path class="st0" d="M462-207C320.6-207,206-92.4,206,49s114.6,256,256,256S718,190.4,718,49C717.8-92.3,603.3-206.8,462-207z
		 M462,287.9c-132,0-238.9-107-238.9-238.9S330-189.9,462-189.9S700.9-83,700.9,49C700.8,180.9,593.9,287.8,462,287.9z"/>
</g>
</svg>
